<svg xmlns="http://www.w3.org/2000/svg" xmlns:xlink="http://www.w3.org/1999/xlink"><symbol id="icon-close" viewBox="0 0 22 22">
<path d="M19.786 17.7467L3.94074 1.90143C2.89495 0.855643 1.58045 0.458855 1.01963 1.01968C0.458807 1.5805 0.855596 2.895 1.90138 3.94078L17.7466 19.786C18.7924 20.8318 20.1069 21.2286 20.6677 20.6678C21.2286 20.107 20.8318 18.7925 19.786 17.7467Z" fill="#D0AD4A"/>
<path d="M17.7962 2.0248L1.95099 17.8701C0.905204 18.9158 0.508415 20.2303 1.06924 20.7912C1.63006 21.352 2.94456 20.9552 3.99035 19.9094L19.8356 4.06416C20.8814 3.01837 21.2782 1.70387 20.7173 1.14305C20.1565 0.582229 18.842 0.979017 17.7962 2.0248Z" fill="#D0AD4A"/>
</symbol><symbol id="icon-menu"><path d="M25.098.638H2.689C1.21.638 0 1.28 0 2.062c0 .783 1.21 1.423 2.689 1.423h22.409c1.479 0 2.689-.64 2.689-1.423S26.577.638 25.097.638zm0 7.456H2.689C1.21 8.094 0 8.735 0 9.518c0 .783 1.21 1.423 2.689 1.423h22.409c1.479 0 2.689-.64 2.689-1.423s-1.21-1.424-2.69-1.424zm0 7.456H2.689C1.21 15.55 0 16.19 0 16.974c0 .783 1.21 1.423 2.689 1.423h22.409c1.479 0 2.689-.64 2.689-1.423s-1.21-1.424-2.69-1.424z" fill="#D0AD4A"/></symbol></svg>